<svg width="1637" height="249" viewBox="0 0 1637 249" fill="none" xmlns="http://www.w3.org/2000/svg">
<path fill-rule="evenodd" clip-rule="evenodd" d="M1621.03 22.6894H1622.7V16.0702H1625.18L1629.92 22.6894H1631.88L1626.97 15.896C1628.38 15.5424 1630.62 14.5087 1630.62 11.7349C1630.62 8.35668 1628.3 7.47867 1624.54 7.47867H1621.03V22.6894ZM1622.7 8.86514H1624.5C1626.82 8.86514 1628.91 9.21786 1628.91 11.7147C1628.91 13.4934 1627.57 14.741 1625.48 14.741H1622.7V8.86514ZM1625.4 2.85375H1625.46C1631.81 2.85375 1637 8.339 1637 15.1922C1637 22.0446 1631.83 27.5298 1625.4 27.5298C1618.94 27.5298 1613.79 22.0446 1613.79 15.1922C1613.79 8.339 1618.94 2.85375 1625.4 2.85375ZM1625.4 4.21917C1631.05 4.21917 1635.59 9.11768 1635.59 15.1712C1635.59 21.2255 1631.05 26.1257 1625.4 26.1257C1619.7 26.1257 1615.18 21.2255 1615.18 15.1712C1615.18 9.11768 1619.72 4.21917 1625.34 4.21917H1625.4ZM1082.79 1.52452L1065.1 64.9215H1063.08C1059.02 48.7536 1042.71 45.649 1024.15 45.649C981.713 45.649 961.538 60.8598 951.674 98.9341L944.288 127.461C935.71 160.513 953.626 173.361 991.051 173.361C1013.18 173.361 1030.49 169.066 1041.25 150.302H1042.39L1036.72 172.913H1088.21L1134.22 1.54473H1082.79V1.52452ZM1052.98 109.613C1045.65 137.906 1038.11 141.947 1017.19 141.947C995.961 141.947 991.732 140.034 999.629 109.613C1006.04 84.8784 1008.67 77.0453 1034.02 77.0453C1060.84 77.0453 1059.28 85.3616 1052.98 109.613ZM1275.11 172.855H1222.94L1256.7 46.0211H1308.87L1275.11 172.855ZM1312.4 32.5891H1260.54L1268.63 1.32922H1320.86L1312.4 32.5891ZM1450.43 121.991V121.971H1399.76C1395.74 137.434 1393.41 141.946 1370.41 141.946C1351.23 141.946 1347.9 138.861 1355.49 109.612C1362.9 81.0894 1369.22 77.0445 1387.21 77.0445C1397.83 77.0445 1403.49 77.9831 1406.36 80.6171C1409.2 83.2343 1409.04 87.2792 1407.01 93.9363H1457.7C1469.23 49.4565 1439.87 45.6482 1395.34 45.6482C1331.97 45.6482 1315.72 67.2836 1304.78 109.612C1292.01 158.855 1302.41 173.343 1362.24 173.343C1417.31 173.343 1438.4 168.403 1450.43 121.991ZM555.205 54.5327C560.196 37.1762 541.697 37.4296 524.659 37.4296C483.803 37.4296 479.983 47.4648 471.931 75.0738L464.407 102.896C456.197 133.239 468.384 136.439 497.897 136.439C526.825 136.439 535.889 131.169 542.321 107.484H502.846L511.328 75.7565H608.501L600.391 105.628C584.793 163.344 563.782 173.831 487.778 173.831C420.82 173.831 389.242 164.693 404.25 109.263L416.201 65.02C431.483 8.45433 472.36 0 534.777 0C589.804 0 628.891 0.235711 612.787 54.5327H555.205ZM1526.78 70.3697H1528.09C1540.56 50.6283 1557.23 45.6313 1581.11 45.6313C1615.31 45.6313 1627.57 58.7106 1620.58 85.5771L1597.39 172.892H1547.01L1567.41 95.1072C1570.26 82.9818 1567.7 77.0445 1551.16 77.0445C1528.48 77.0445 1521.82 87.9779 1517.86 103.21L1499.4 172.892H1449.35L1495.61 1.52284H1545.65L1526.78 70.3697ZM706.533 45.6482C641.972 45.6482 625.945 58.4959 612.73 109.612C599.767 159.539 610.058 173.343 673.45 173.343C738.813 173.343 754.173 160.983 767.466 109.612C781.168 56.8384 771.385 45.6482 706.533 45.6482ZM716.784 109.612C709.766 136.713 706.045 141.946 682.438 141.946C657.976 141.946 656.396 136.692 663.395 109.612C670.431 82.4918 674.795 77.0445 699.263 77.0445C722.848 77.0445 723.783 82.512 716.784 109.612ZM874.542 45.6482C939.395 45.6482 949.162 56.8384 935.497 109.612C922.224 160.983 905.732 173.343 841.462 173.343C778.091 173.343 767.78 159.539 780.723 109.612C793.96 58.4959 809.961 45.6482 874.542 45.6482ZM884.795 109.612C891.812 82.512 890.879 77.0445 867.292 77.0445C842.809 77.0445 838.44 82.4918 831.426 109.612C824.406 136.692 826.006 141.946 850.489 141.946C874.034 141.946 877.778 136.713 884.795 109.612Z" fill="#1B3575"/>
<path fill-rule="evenodd" clip-rule="evenodd" d="M178.577 1.48252H66.6092L20.4504 172.913H133.47C178.559 172.913 204.502 167.095 215.87 125.116C221.656 103.68 220.392 88.3888 189.358 86.7902L189.845 84.9525C218.908 81.3218 228.109 67.1659 233.979 45.4951C244.094 8.10423 220.86 1.48252 178.577 1.48252ZM161.013 118.066C157.251 131.969 148.657 135.384 130.234 135.384H87.3899L96.3557 101.86H140.449C158.888 101.86 164.853 103.91 161.013 118.066ZM175.009 53.7339C171.326 67.4007 165.75 70.1535 145.888 70.1535H104.932L113.316 39.1267H161.091C176.861 39.578 177.798 43.4612 175.009 53.7339ZM305.263 72.3194H392.085L382.064 109.73H295.363L278.635 172.892H221.676L267.932 1.46484H418.636L408.538 38.7782H314.328L305.263 72.3194Z" fill="#B92C23"/>
<path fill-rule="evenodd" clip-rule="evenodd" d="M1176.97 97.8402L1157.25 172.855L1105.2 172.912L1139.1 46.5469H1189.2L1183.68 67.0694C1183.68 67.0694 1196.94 46.6092 1229.78 46.6092H1244.83L1236.27 78.6865H1202.06C1190.39 78.9205 1181.07 83.3535 1176.97 97.8402ZM1428.33 249L1438.74 210.831H10.2736L0 249H1428.33ZM1459.94 247.03H1454.27L1463.85 193.98H1447.62L1448.67 188.083H1486.76L1485.69 193.98H1469.49L1459.94 247.03ZM1485.86 247.03L1493.32 205.755H1488.03L1480.58 247.03H1485.86ZM1495.27 194.92H1489.98L1491.18 188.063H1496.47L1495.27 194.92ZM1506.49 205.755L1505.32 210.868L1505.4 211.046C1508.02 206.475 1512.43 205.304 1516.39 205.304C1523.12 205.304 1525.4 209.229 1524.01 216.942L1523.49 219.911H1518.48L1518.97 217.178C1519.9 212.082 1518.73 210.342 1514.33 210.342C1507.8 210.342 1504.99 214.014 1503.8 221.314L1499.2 247.03H1493.92L1501.34 205.755H1506.49ZM1555.61 234.534H1550.24L1549.93 236.116C1548.89 241.933 1546.45 242.463 1539.26 242.463C1529.78 242.463 1529.28 240.82 1531.61 227.777H1556.84L1557.58 223.621C1560.33 208.37 1557.27 205.304 1545.94 205.304C1533.39 205.304 1529.45 209.308 1526.37 226.452C1523.54 242.169 1524.66 247.518 1538.32 247.518C1546.14 247.518 1553.35 246.951 1555.33 236.037L1555.61 234.534ZM1552.26 222.743H1532.52C1534.64 213.212 1535.5 210.322 1545 210.322C1553.04 210.322 1554.1 211.025 1552.26 222.743ZM1594.32 216.532H1588.87L1589.16 214.951C1589.91 210.793 1587.23 210.793 1581.67 210.793C1575.06 210.793 1571.88 210.715 1570.97 215.828C1569.66 223.19 1571.48 222.663 1576.92 222.975C1585.76 223.621 1594.3 221.94 1591.87 235.392C1589.78 247.03 1582.91 247.518 1575.09 247.518C1567.5 247.518 1559.63 247.051 1561.31 237.835L1561.96 234.009H1567.44L1566.87 237.209C1566.16 241.155 1568.09 242.012 1576.1 242.012C1579.71 242.012 1585.04 242.947 1586.35 235.648C1587.77 227.934 1584.75 229.358 1578.46 228.89C1570.96 228.265 1563.11 229.206 1565.22 217.488C1567.36 205.539 1573.21 205.304 1582.69 205.304C1588.81 205.304 1596.31 205.618 1594.61 214.971L1594.32 216.532Z" fill="#1B3575"/>
</svg>
