<svg width="1637" height="610" viewBox="0 0 1637 610" fill="none" xmlns="http://www.w3.org/2000/svg">
<g clip-path="url(#clip0_250_61)">
<path d="M0 0V609.861H1637V0H0Z" fill="#FF9900"/>
<path d="M1452.38 291.832C1451.26 287.56 1449.59 282.737 1448.3 280.328C1448.3 280.328 1449.04 279.578 1450.53 280.51C1452 281.441 1461.47 287.932 1461.47 287.932C1466.29 294.99 1469.26 323.945 1469.44 334.343C1464.99 332.298 1458.68 328.775 1454.6 324.868L1452.38 291.832ZM1423.8 264.91C1415.99 256.372 1409.51 248.387 1403.19 238.927C1407.28 231.122 1410.25 210.519 1408.39 202.54C1407.65 200.121 1400.96 191.211 1399.85 189.915C1398.18 188.244 1392.8 182.119 1390.21 182.119C1389.65 182.119 1389.09 182.31 1388.9 182.493L1389.65 189.359C1382.41 193.997 1372.95 200.313 1364.41 206.622C1364.41 209.033 1364.59 212.738 1364.78 214.053C1366.08 215.158 1367.56 216.089 1369.23 216.654C1372.58 216.089 1382.97 213.488 1385.74 213.86L1375.55 229.27L1363.85 237.623L1349.2 232.987C1348.27 232.795 1347.33 232.987 1346.78 233.726L1336.02 245.431C1335.46 245.979 1335.09 246.534 1335.09 247.832L1334.72 261.023C1334.72 261.023 1334.53 263.059 1334.53 265.286C1334.53 274.754 1338.8 279.208 1338.8 279.208L1345.86 268.993C1344.92 267.514 1343.25 263.432 1342.87 261.579C1342.87 261.205 1343.06 250.251 1343.06 250.251L1349.93 245.23L1368.12 258.048C1368.12 258.048 1373.13 267.331 1377.96 272.901C1381.11 276.799 1396.88 287.379 1404.49 291.834C1405.24 295.924 1406.91 302.599 1408.2 306.122L1430.48 328.962L1417.3 345.479C1412.67 348.453 1408.2 353.837 1408.58 358.85H1423.8L1425.47 350.123L1443.66 329.893C1444.59 328.78 1444.59 328.215 1444.03 326.544L1438.83 309.098C1441.43 306.124 1446.99 298.709 1446.99 289.791C1446.98 273.636 1429.36 269.554 1423.8 264.91ZM1341.76 231.679C1341.21 231.871 1327.67 235.579 1327.67 235.579C1327.67 235.579 1321.35 237.996 1318.57 239.849C1315.78 241.711 1312.63 244.86 1312.44 246.532L1324.5 249.316C1326.36 247.269 1328.4 245.052 1330.26 243.554L1333.04 242.266L1343.06 232.052C1343.06 232.052 1342.69 231.497 1341.76 231.679ZM1398.74 336.016L1415.81 319.683L1422.87 326.731L1404.49 342.324C1403.01 344.177 1401.9 347.151 1400.97 349.006H1387.42C1388.17 343.993 1395.21 337.684 1398.74 336.016ZM1489.49 370.538H1308.17V364.596H1489.49V370.538ZM981.355 285.513C981.355 274.385 977.823 265.649 968.187 265.649C958.523 265.649 954.625 274.383 954.625 285.513V358.848H965.959V370.54H903.968V358.848H915.468V257.86H903.968V246.532H952.773V265.464H953.329C957.966 255.076 968.734 244.129 986 244.129C1004.19 244.129 1015.31 255.258 1018.84 269.921C1020.15 275.681 1020.52 285.146 1020.52 289.969V358.848H1035.36V370.54H981.355V285.513ZM729.515 285.513C729.515 274.385 725.993 265.649 716.345 265.649C706.691 265.649 702.795 274.383 702.795 285.513V358.848H714.119V370.54H652.128V358.848H663.636V257.86H652.128V246.532H700.941V265.464H701.489C706.134 255.076 716.902 244.129 734.16 244.129C752.347 244.129 763.48 255.258 767.002 269.921C768.307 275.681 768.68 285.146 768.68 289.969V358.848H783.527V370.54H729.513L729.515 285.513ZM1087.88 257.86V349.561C1087.88 355.878 1091.97 357.368 1095.86 357.368C1099.57 357.368 1103.11 356.07 1103.11 356.07V367.382C1103.11 367.382 1095.67 372.03 1079.16 372.03C1059.87 372.03 1048.54 362.555 1048.54 342.507V257.862H1035.36V249.5C1050.02 237.814 1067.1 224.433 1080.64 213.121H1087.88V246.534H1106.82V257.862L1087.88 257.86ZM314.359 182.117C314.359 182.117 344.245 211.997 357.971 227.407V239.11C345.176 225.554 318.63 214.224 293.946 214.224C238.085 214.224 203.008 256.37 203.008 308.535C203.008 360.508 236.225 402.655 293.946 402.655C322.71 402.655 345.724 389.1 358.528 375.187V386.316C341.079 410.268 309.166 425.862 269.452 425.862C198.363 425.862 149.376 374.255 149.376 308.537C149.376 242.827 203.757 191.393 269.452 191.393C286.16 191.393 301.192 194.177 314.361 198.823L314.359 182.117ZM885.224 337.502C879.648 343.993 870.933 349.006 857.937 349.006C846.613 349.006 829.173 342.689 828.434 313.921H894.688C894.87 311.693 895.054 307.231 895.054 305.002C895.054 270.109 880.773 244.129 843.466 244.129C805.979 244.129 786.859 272.895 786.859 308.727C786.859 344.547 805.979 372.767 843.466 372.767C867.596 372.767 882.807 361.445 891.723 343.618L885.224 337.502ZM828.436 301.854C828.436 269.18 831.037 256.929 842.163 256.929C853.495 256.929 855.723 268.805 856.081 301.854H828.436ZM282.071 308.162C282.071 270.295 285.593 253.588 298.396 253.588C311.2 253.588 314.73 270.295 314.73 308.162C314.73 346.04 311.2 362.735 298.396 362.735C285.593 362.735 282.071 346.04 282.071 308.162ZM236.041 308.537C236.041 346.04 259.047 376.484 298.398 376.484C337.74 376.484 360.754 346.04 360.754 308.537C360.754 271.034 337.74 240.6 298.398 240.6C259.047 240.598 236.041 271.034 236.041 308.537ZM448.534 285.513C448.534 274.385 445.012 265.649 435.364 265.649C425.718 265.649 421.814 274.385 421.814 285.513V358.848H433.138V370.54H371.149V358.848H382.655V257.862H371.149V246.534H419.96V265.467H420.517C425.153 255.078 435.921 244.131 453.177 244.131C471.364 244.131 482.506 255.26 486.021 269.921C487.316 275.683 487.693 285.148 487.693 289.969V358.85H502.549V370.542H448.534V285.513ZM587.171 213.67C587.171 224.623 597.008 231.871 611.117 231.871C625.215 231.871 635.054 224.623 635.054 213.67C635.054 202.73 625.215 195.483 611.117 195.483C597.008 195.483 587.171 202.73 587.171 213.67ZM555.066 257.862V349.561C555.066 355.878 559.146 357.368 563.05 357.368C566.756 357.368 570.278 356.07 570.278 356.07V367.382C570.278 367.382 562.866 372.03 546.349 372.03C527.048 372.03 515.722 362.555 515.722 342.507V257.862H502.545V249.5C517.21 237.814 534.284 224.433 547.818 213.121H555.064V246.534H570.278V257.862H555.066ZM1279.04 358.848H1294.26V370.54H1239.88V211.997H1226.33V200.686H1279.05L1279.04 358.848ZM1174.36 309.094C1173.25 307.978 1170.83 306.492 1165.82 306.492C1154.14 306.492 1151.54 318.012 1151.54 329.889C1151.54 341.586 1155.06 351.053 1165.08 351.053C1169.91 351.053 1172.89 349.006 1174.36 347.335V309.094ZM1176.04 355.689H1175.48C1168.24 365.893 1158.59 372.767 1143.75 372.767C1123.51 372.767 1110.89 355.505 1110.89 334.9C1110.89 310.025 1128.52 294.239 1156.73 294.239C1168.24 294.239 1174.36 296.851 1174.36 296.851V289.04C1174.36 274.011 1165.08 266.023 1151.54 266.023C1132.79 266.023 1123.15 280.51 1123.15 280.51L1116.28 272.158C1128.71 252.841 1147.82 244.131 1165.64 244.131C1195.72 244.131 1213.52 261.942 1213.52 289.04V358.848H1226.14V370.54H1176.04V355.689ZM579.934 370.538V358.846H591.26V257.86H579.934V246.532H630.417V358.846H641.925V370.538" fill="black"/>
</g>
<defs>
<clipPath id="clip0_250_61">
<rect width="1637" height="610" fill="white"/>
</clipPath>
</defs>
</svg>
