<svg width="1637" height="264" viewBox="0 0 1637 264" fill="none" xmlns="http://www.w3.org/2000/svg">
<path d="M461.951 62.0429H316.944L307.622 83.7578H332.481L293.122 170.618H268.262L257.905 193.367H421.557C461.951 193.367 481.631 166.482 497.167 130.29C512.704 98.2344 524.096 62.0429 461.951 62.0429ZM430.877 130.29C422.592 149.937 414.306 170.618 394.626 170.618H362.518L400.84 83.7578H423.628C449.522 86.86 437.094 114.779 430.877 130.29ZM543.776 62.0429H660.817L650.46 83.7578H625.603L597.635 148.903C587.278 176.822 646.317 185.094 661.854 148.903L689.819 83.7578H667.031L677.391 62.0429H751.964L741.607 83.7578H718.821L689.819 148.903C668.068 191.299 651.497 193.367 588.315 194.401C515.81 195.435 519.953 176.822 531.347 148.903L560.349 83.7578H534.455L543.776 62.0429ZM769.573 83.7578H794.432L757.144 170.618H731.25L721.927 193.367H797.538L808.932 170.618H784.075L812.04 108.575L856.577 193.367H911.473L960.153 83.7578H982.941L992.263 62.0429H916.651L907.33 83.7578H932.188L903.187 147.869L858.648 62.0429H779.93L769.573 83.7578ZM1011.94 83.7578H1036.8L999.512 170.618H974.655L965.333 193.367H1138.3L1164.2 132.358H1144.52L1109.3 170.618H1066.84L1104.12 83.7578H1126.91L1135.2 62.0429H1021.26L1011.94 83.7578ZM1317.49 61.0087C1227.38 61.0087 1212.88 72.3833 1191.13 123.052C1166.27 177.856 1165.24 195.435 1264.67 195.435C1354.78 195.435 1371.35 166.482 1388.96 123.052C1412.78 68.2471 1401.39 61.0087 1317.49 61.0087ZM1328.89 110.643L1310.24 154.073C1302.99 169.584 1287.45 173.72 1279.17 173.72H1265.71C1257.42 173.72 1235.67 171.652 1246.03 144.767L1264.67 102.371C1273.99 85.826 1287.45 82.7238 1295.74 82.7238H1311.28C1319.56 82.7238 1338.21 89.9622 1328.89 110.643ZM1607.51 62.0429H1441.78L1431.43 85.826H1456.29L1419 170.618H1395.18L1385.85 193.367H1497.71L1508.07 170.618H1486.32L1498.75 140.63H1560.9C1614.76 140.63 1615.79 126.154 1629.26 100.303C1634.44 82.7238 1651.01 62.0429 1607.51 62.0429ZM1560.9 102.371C1556.75 110.643 1556.75 117.881 1538.11 117.881H1509.11L1522.57 85.826H1549.5C1570.22 85.826 1561.93 98.2344 1560.9 102.371ZM89.0757 55.8385L16.5722 0L245.477 128.222L16.5722 262.649L93.2188 200.605C89.0757 201.639 83.8969 201.639 79.7538 201.639C35.2161 201.639 0 168.55 0 128.222C0 87.894 36.2518 54.8045 79.7538 54.8045C81.8254 55.8385 85.9685 55.8385 89.0757 55.8385ZM88.04 200.605C129.471 200.605 162.615 168.55 162.615 129.256C162.615 89.9622 129.471 57.9067 88.04 57.9067C46.6094 57.9067 13.4649 89.9622 13.4649 129.256C14.5007 168.55 47.6451 200.605 88.04 200.605Z" fill="#231F20"/>
</svg>
