<svg width="1637" height="232" viewBox="0 0 1637 232" fill="none" xmlns="http://www.w3.org/2000/svg">
<g clip-path="url(#clip0_250_66)">
<path fill-rule="evenodd" clip-rule="evenodd" d="M0.0020752 72.9367C0.0020752 72.9367 0.0020752 -1.9134 73.8856 1.01499C147.87 3.90914 149.786 27.2629 214.926 0C219.885 11.7111 214.926 51.5069 176.068 62.2356C143.977 71.0233 116.741 67.0791 116.741 67.0791C111.837 76.7928 109.013 92.3381 116.741 104.927C132.306 94.3338 156.669 84.594 179.001 104.048L158.055 144.75C146.384 139.954 130.341 138.04 122.606 143.844C124.523 162.311 127.403 185.636 115.784 201.174C104.115 216.72 86.5185 238.123 46.6508 230.352C56.4585 207.993 60.9873 206.822 49.5829 152.624C36.3639 89.5385 66.103 63.2164 66.103 63.2164C47.6597 54.4369 0.0020752 72.9367 0.0020752 72.9367ZM212.047 64.1507C212.047 64.1507 225.697 78.7682 225.697 86.5139C225.697 94.3061 227.619 119.599 226.658 149.703C225.697 179.785 239.291 183.62 251.976 190.432L314.769 169.137C296.162 163.34 294.832 136.077 296.749 96.2554C297.757 73.8636 290.882 40.8312 273.347 41.7932L212.047 64.1507ZM425.164 99.1577C425.164 99.1577 439.714 121.97 443.655 127.774L496.646 99.668L461.622 43.7677L410.93 63.9999C407.307 51.3015 400.8 41.3228 391.101 41.8266L332.735 64.1572C332.735 64.1572 346.33 78.7755 346.33 86.575C346.33 94.3208 348.3 119.551 347.34 149.716C346.33 179.846 359.973 183.735 372.658 190.494L432.415 169.144C415.091 163.606 412.797 139.273 414.128 103.266L425.164 99.1577ZM601.284 142.835L681.026 104.021L631.399 43.7816C631.399 43.7816 630.867 43.7816 629.748 43.8362C620.526 44.1011 573.988 46.5265 547.715 62.2006C518.61 79.7163 507.895 100.158 510.773 128.299C513.652 156.46 545.736 192.393 589.614 192.393C614.824 192.393 630.444 194.362 650.913 183.668L677.138 141.923C644.087 152.632 617.75 159.443 601.284 142.835ZM578.415 119.572C571.593 104.954 573.025 89.47 587.637 83.5839L605.172 104.961L578.415 119.572ZM1557.2 144.327L1637 105.465L1587.37 45.2262C1587.37 45.2262 1586.79 45.2262 1585.72 45.28C1585.3 45.28 1584.92 45.28 1584.54 45.3346C1585.02 45.28 1585.34 45.28 1585.72 45.28C1576.55 45.5523 1529.96 47.972 1503.73 63.6998C1474.53 81.1593 1463.81 101.603 1466.69 129.797C1469.67 157.904 1501.77 193.893 1545.53 193.893C1570.79 193.893 1586.41 195.861 1606.82 185.111L1633.11 143.374C1600.01 154.014 1573.77 160.827 1557.2 144.327ZM1534.33 121.01C1527.51 106.446 1529 90.9081 1543.55 85.022L1561.08 106.453L1534.33 121.01ZM867.377 84.5646L849.363 102.052C849.363 102.052 819.666 86.0786 812.902 81.1324C802.185 73.4413 792.971 80.7036 800.693 87.5216C808.474 94.3338 844.718 115.628 859.111 125.376C871.75 134.001 880.487 147.734 861.082 161.304C841.575 174.935 787.153 201.229 787.153 201.229L711.251 155.499L729.694 137.079C729.694 137.079 771.484 160.397 776.335 164.233C781.293 168.116 796.804 161.296 782.249 152.624C767.644 143.789 726.707 120.553 718.978 113.736C711.251 106.923 702.459 93.3465 728.732 78.7356C755.014 64.1702 792.002 42.8008 792.002 42.8008L867.377 84.5646ZM977.295 87.5216H1012.85V50.5457H977.295V14.5849L877.132 87.5216H908.686V151.617C908.686 168.177 915.512 183.668 933.048 192.393L996.747 169.608C975.371 153.101 977.288 147.727 977.288 142.829L977.295 87.5216ZM1194.77 76.7724C1171.37 54.5445 1122.77 42.8073 1122.77 42.8073C1122.77 42.8073 1058.42 58.8841 1040.03 88.4893C1022.55 116.678 1038.12 144.818 1054.64 163.286C1071.16 181.699 1099.41 188.518 1130.54 195.33C1130.54 195.33 1154.9 190.486 1186.04 171.058C1211.47 155.193 1213.28 139.967 1213.28 120.513C1213.28 101.098 1216.15 97.2149 1194.77 76.7724ZM1137.37 151.624C1086.78 130.172 1112.58 80.7101 1112.58 80.7101C1112.58 80.7101 1162.69 106.984 1137.37 151.624ZM1302.73 45.7096L1241.53 68.5498L1258.48 89.4431V169.083C1258.48 174.989 1261.88 186.597 1278.47 194.369L1338.76 174.989C1325.11 162.318 1323.19 155.506 1323.19 147.734V99.1846L1344.67 92.3731C1353.35 99.1846 1357.19 104.028 1357.19 113.694V163.286C1357.19 167.223 1357.19 175.902 1365.04 183.62C1372.81 191.494 1378.67 196.338 1378.67 196.338L1438.96 172.966C1432.14 169.083 1421.48 163.279 1421.48 144.805C1421.48 126.385 1423.46 93.2919 1421.48 84.5646C1419.57 75.8064 1410.77 41.7932 1371.85 50.5743C1347.18 56.1661 1320.31 69.0479 1320.31 69.0479C1320.31 69.0479 1314.45 57.3922 1302.73 45.7096Z" fill="#E41D2D"/>
</g>
<defs>
<clipPath id="clip0_250_66">
<rect width="1637" height="232" fill="white"/>
</clipPath>
</defs>
</svg>
