<svg width="1637" height="297" viewBox="0 0 1637 297" fill="none" xmlns="http://www.w3.org/2000/svg">
<g clip-path="url(#clip0_250_70)">
<path d="M487.342 32.6184C486.883 34.1468 470.773 86.9003 470.773 86.9003H419.237L435.804 32.6184H376.802C376.802 32.6184 332.206 178.346 331.376 181.119H390.336C390.794 179.613 409.413 118.867 409.413 118.867H460.995C460.995 118.867 442.768 178.412 441.938 181.119H500.94C501.398 179.567 545.513 35.3915 546.343 32.6184H487.342ZM797.589 48.7763L794.904 50.7633L800.448 32.6184H741.445C741.445 32.6184 696.871 178.346 695.999 181.119H755.044C755.503 179.567 782.439 91.4638 782.439 91.4638C786.281 78.9961 796.016 70.6113 806.713 70.6113H821.84C826.598 70.6113 830.33 72.2272 832.602 75.3059C834.26 77.5768 835.133 80.5245 835.133 83.9744C835.133 86.4418 834.675 89.1493 833.801 92.0534C833.801 92.0534 810.074 169.765 806.581 181.119H865.584C866.042 179.567 897.628 76.4632 897.628 76.4632C898.522 73.4282 899.811 68.1222 899.811 62.1176C899.811 55.9382 898.479 49.0165 894.004 42.9682C887.433 34.1033 875.821 29.6271 859.449 29.6271C827.93 29.6271 807.17 41.6144 797.589 48.7763ZM564.003 43.2957C564.526 45.1299 572.493 72.6857 573.105 74.8037C578.321 72.6421 600.456 64.0391 619.556 64.0391C637.783 64.0391 648.15 66.4845 652.036 71.7469C654.023 74.4325 654.372 77.8388 653.04 82.0965L649.351 94.1931L648.281 93.822C623.44 85.6557 604.516 85.9177 604.363 85.9614C584.63 85.9614 566.906 90.8524 553.067 100.176C539.795 109.085 530.299 121.771 525.716 136.903C521.656 150.244 522.637 161.597 528.662 169.721C535.648 179.175 549.443 184.132 568.543 184.132C586.616 184.132 606.261 179.503 623.899 171.009L626.191 169.917C626.191 169.917 623.397 179.001 622.743 181.119H681.744C682.203 179.567 713.156 78.4502 713.156 78.4502C714.488 74.236 715.098 70.1529 715.098 66.3098C715.098 59.8904 713.286 54.0823 709.664 49.1912C700.19 36.396 678.319 29.6271 646.405 29.6271C607.332 29.6271 570.377 41.1559 564.003 43.2957ZM610.737 116.334C615.212 116.334 630.623 116.662 640.119 121.138L640.969 121.552L634.355 143.147L633.897 143.366C624.49 147.755 611.239 150.746 600.915 150.746C590.96 150.746 583.997 148.41 580.767 144.021C579.458 142.187 578.78 140.047 578.78 137.689C578.78 136.269 578.999 134.784 579.501 133.212C582.732 122.644 594.409 116.334 610.737 116.334ZM1027.55 31.8543C1026.96 32.3127 971.036 76.4195 971.036 76.4195L984.744 31.8543H925.786C925.786 31.8543 880.514 179.831 879.684 182.604H938.643C939.102 181.075 957.372 121.356 957.372 121.356C957.372 121.356 999.676 181.643 1000.33 182.604H1063.26C1060.99 179.285 1009.19 105.395 1009.19 105.395C1009.19 105.395 1093.89 35.5661 1098.41 31.8543H1027.55ZM1052.09 107.163C1045.69 128.147 1048.11 147.798 1058.96 162.427C1071.19 179.001 1093.19 188.127 1120.91 188.127C1186.07 188.127 1222.87 162.952 1240.14 106.552C1246.53 85.5901 1244.09 65.9823 1233.26 51.3092C1221.02 34.7583 1199.01 25.6094 1171.29 25.6094C1111.37 25.6094 1067.96 55.3706 1052.09 107.163ZM1109.8 140.243C1104.63 133.322 1104.5 122.295 1109.25 106.595C1115.1 87.4898 1128.44 64.7377 1158.65 64.7377C1170.24 64.7377 1178.04 67.6418 1182.38 73.5591C1187.53 80.4808 1187.68 91.5075 1182.88 107.207C1177.05 126.313 1163.78 149.065 1133.53 149.065C1121.94 149.065 1114.14 146.182 1109.8 140.243ZM1248.76 107.163C1242.34 128.147 1244.74 147.798 1255.59 162.427C1267.86 179.001 1289.86 188.127 1317.58 188.127C1382.76 188.127 1419.52 162.952 1436.79 106.552C1443.21 85.5901 1440.76 65.9823 1429.91 51.3092C1417.69 34.7583 1395.69 25.6094 1367.97 25.6094C1308.07 25.6094 1264.59 55.3706 1248.76 107.163ZM1355.33 64.7377C1366.94 64.7377 1374.69 67.6418 1379.08 73.5591C1384.2 80.4808 1384.38 91.5511 1379.58 107.207C1373.73 126.313 1360.43 149.065 1330.18 149.065C1318.59 149.065 1310.84 146.182 1306.43 140.243C1301.3 133.278 1301.13 122.295 1305.95 106.595C1311.78 87.4898 1325.09 64.7377 1355.33 64.7377ZM1569.92 30.5441C1569.33 31.09 1512.58 78.9961 1512.58 78.9961L1527.31 30.5441H1468.4C1468.4 30.5441 1422.38 180.901 1421.55 183.695H1480.47C1480.93 182.145 1499.48 121.465 1499.48 121.465C1499.48 121.465 1545.06 182.865 1545.71 183.695H1610.39C1607.86 180.332 1552.48 105.809 1552.48 105.809C1552.48 105.809 1632.43 34.2779 1637 30.5441H1569.92Z" fill="black"/>
<path d="M348.993 7.20556L348.206 0H298.197C303.917 59.0201 263.229 124.918 205.23 140.596C205.187 140.618 205.143 140.618 205.1 140.618C204.815 140.705 204.074 140.749 203.987 139.875C203.942 139.591 204.074 139.264 204.313 139.089H204.27C252.619 106.795 278.138 54.7403 273.75 0H224.811C226.928 48.1244 194.666 91.9254 145.268 109.699C144.941 109.787 144.199 109.83 144.111 108.957C144.111 108.673 144.264 108.411 144.526 108.258H144.482C180.149 83.8028 201.629 47.4038 200.386 0H151.402C150.944 56.7711 99.9087 96.4017 0 96.4017C1.44067 97.1876 2.85952 97.9737 4.23471 98.7598C69.196 134.329 103.096 156.164 151.074 195.248C158.452 201.603 168.711 205.075 179.08 204.748C308.523 195.707 355.082 82.056 348.993 7.20556Z" fill="#F23300"/>
<path d="M647.845 210.883C647.845 210.883 643.044 226.452 641.886 230.187C635.841 226.452 628.417 224.728 618.857 224.728C596.68 224.728 579.086 235.58 573.891 252.457C571.621 259.859 572.232 266.04 575.856 270.8C580.308 276.738 589.192 279.883 601.46 279.883C610.846 279.883 619.643 278.093 628.266 274.533C628.048 275.253 626.934 278.879 626.934 278.879H644.374L666.881 205.688L647.845 210.883ZM591.506 264.97C589.52 262.305 589.236 258.507 590.765 253.68C594.562 241.082 603.817 234.75 618.137 234.75C628.33 234.75 635.229 237.654 638.656 240.624C638.044 242.698 632.106 261.977 631.693 263.31C623.573 267.656 615.081 269.86 606.458 269.86C599.081 269.86 593.908 268.201 591.506 264.97ZM687.966 229.444C688.053 229.16 689.124 225.753 689.124 225.753H671.638L655.31 278.879H672.709L682.072 248.723C684.736 240.056 693.095 235.121 705.035 235.121C711.585 235.121 715.143 235.994 717.805 236.868L719.072 237.326L727.322 226.758L724.222 225.972C720.774 225.099 716.147 224.728 709.641 224.728C702.045 224.728 694.099 226.495 687.966 229.444ZM731.23 213.242V213.285C730.772 214.683 731.056 216.233 732.015 217.456C733.675 219.617 737.102 220.862 741.424 220.862C746.685 220.862 752.775 218.547 753.976 214.596C754.391 213.111 754.084 211.582 753.102 210.251C751.53 208.133 748.256 206.888 744.349 206.888C737.975 206.888 732.453 209.552 731.23 213.242ZM730.27 225.753L713.811 278.879H731.295L747.623 225.753H730.27ZM816.819 225.753C816.819 225.753 781.24 264.379 780.868 264.794C778.947 258.571 769.015 225.753 769.015 225.753H750.569L770.128 278.856H784.012L836.334 225.753H816.819ZM839.434 213.198V213.285C838.996 214.683 839.28 216.233 840.241 217.456C841.878 219.617 845.326 220.862 849.671 220.862C854.866 220.862 861.001 218.547 862.2 214.596C862.638 213.067 862.31 211.582 861.37 210.251C859.756 208.176 856.482 206.888 852.574 206.888C846.2 206.888 840.7 209.552 839.434 213.198ZM838.494 225.753L822.079 278.879H839.565L855.849 225.753H838.494ZM883.985 229.662C884.116 229.247 885.186 225.753 885.186 225.753H867.702L851.418 278.879H868.771L878.07 248.79C880.842 239.881 890.271 234.75 904.045 234.75C911.838 234.75 916.793 236.125 918.824 238.811C920.286 240.711 920.394 243.615 919.195 247.435L909.502 278.879H926.988L936.658 247.545C938.426 241.758 937.88 236.911 934.998 233.134C930.807 227.544 921.813 224.728 908.346 224.728C899.309 224.728 890.861 226.452 883.985 229.662ZM940.586 252.457C939.538 255.798 939.102 258.878 939.255 261.738C939.473 265.165 940.542 268.201 942.529 270.8C947.005 276.738 955.866 279.883 968.134 279.883C977.499 279.883 986.317 278.136 994.852 274.577C991.512 283.201 983.806 287.219 954.252 287.677L951.347 287.721L955.779 297L957.111 296.957C974.551 296.674 987.277 294.687 996.097 290.865C1004.85 287.132 1010.28 281.324 1012.75 273.179L1027.38 225.753H1009.89C1009.89 225.753 1009.04 228.658 1008.58 230.142C1002.53 226.452 995.114 224.728 985.531 224.728C963.374 224.728 945.76 235.58 940.586 252.457ZM958.202 264.97C956.216 262.305 955.953 258.507 957.438 253.68H957.482C961.302 241.082 970.491 234.75 984.877 234.75C995.07 234.75 1001.95 237.654 1005.35 240.624C1004.72 242.698 998.802 261.977 998.388 263.31C990.267 267.656 981.777 269.86 973.198 269.86C965.777 269.86 960.603 268.158 958.202 264.97ZM1057.22 251.409C1056.28 254.489 1055.88 257.306 1056.06 259.947C1056.28 263.419 1057.39 266.542 1059.42 269.271C1066.67 278.856 1082.49 279.883 1088.91 279.883C1103.01 279.883 1111.96 277.939 1124.51 274.075L1127.37 273.202L1119.71 264.883L1118.51 265.254C1108.69 268.398 1102.23 269.904 1091.95 269.904C1084.06 269.904 1078.39 268.027 1075.44 264.511C1074.09 262.939 1073.37 260.996 1073.26 258.746C1073.22 258.092 1073.26 257.37 1073.3 256.628H1134.62L1135.16 255.798C1135.86 254.641 1136.43 253.484 1137.06 251.54C1137.89 248.833 1138.22 246.278 1138.09 243.833C1137.94 240.514 1136.82 237.479 1134.86 234.881C1129.86 228.243 1119.62 224.728 1105.24 224.728C1081.42 224.728 1062.15 235.405 1057.22 251.409ZM1103.34 234.75C1111.46 234.75 1117.13 236.453 1119.82 239.728C1120.98 241.082 1121.61 242.785 1121.74 244.772C1121.76 245.448 1121.7 246.234 1121.61 246.977H1076.69C1081.71 239.052 1090.98 234.75 1103.34 234.75ZM1213.22 232.435C1209.91 228.615 1203.23 224.728 1189.8 224.728C1181.44 224.728 1173.89 226.344 1167.69 229.401C1167.75 229.117 1168.8 225.753 1168.8 225.753H1151.36L1135.03 278.879H1152.39L1161.62 248.79C1164.52 239.466 1172.49 234.75 1185.28 234.75C1192.16 234.75 1196.57 235.951 1198.34 238.353C1199.8 240.252 1199.86 243.331 1198.56 247.435L1188.86 278.879H1206.37L1215.62 248.79C1218.53 239.466 1226.47 234.75 1239.29 234.75C1246.25 234.75 1250.55 235.864 1252.34 238.265C1253.74 240.143 1253.82 243.156 1252.49 247.435L1242.84 278.879H1260.33L1269.93 247.545C1271.81 241.431 1271.26 236.409 1268.36 232.589C1264.35 227.281 1256.14 224.728 1243.37 224.728C1228.09 224.728 1219.23 228.658 1213.22 232.435ZM1292.77 231.475C1283.16 236.278 1276.72 243.287 1274.13 251.65C1272.14 258.287 1272.92 264.248 1276.48 268.944C1281.83 275.996 1293.09 279.883 1308.26 279.883C1319.9 279.883 1331.18 277.394 1340 272.961C1349.61 268.07 1356.05 261.017 1358.6 252.61C1360.63 246.06 1359.84 240.186 1356.33 235.536C1351.07 228.569 1339.72 224.728 1324.42 224.728C1312.56 224.728 1301.63 227.042 1292.77 231.475ZM1292.4 264.008C1290.28 261.28 1289.95 257.501 1291.39 252.828C1294.93 241.344 1306.23 234.75 1322.43 234.75C1331.29 234.75 1337.78 236.824 1340.64 240.601C1342.64 243.243 1342.99 246.933 1341.57 251.497C1338.06 262.983 1326.34 269.86 1310.25 269.86C1301.58 269.86 1295.25 267.786 1292.4 264.008ZM1381.28 210.927C1381.28 210.927 1377.37 223.548 1376.72 225.753H1365.15L1362.25 235.58H1373.68C1372.33 240.056 1364.28 266.127 1364.28 266.127C1363.71 267.83 1363.49 269.446 1363.58 270.843C1363.66 272.503 1364.19 274.009 1365.1 275.253C1367.51 278.441 1372.4 279.883 1380.47 279.883C1387.33 279.883 1392.54 279.381 1398.55 278.18L1399.46 277.983L1404.4 267.415L1400.38 268.201C1396.28 269.074 1392.63 269.599 1387.2 269.599C1382.55 269.599 1381.65 268.856 1381.43 268.616C1381.39 268.529 1381.1 268.07 1381.65 266.279C1381.61 266.322 1389.31 241.541 1391.13 235.58H1414.09L1417.1 225.753H1394.07C1395.32 221.824 1400.29 205.688 1400.29 205.688L1381.28 210.927ZM1426.4 213.198L1426.36 213.285C1425.94 214.683 1426.18 216.233 1427.18 217.456C1428.8 219.617 1432.23 220.862 1436.59 220.862C1441.81 220.862 1447.94 218.504 1449.1 214.596C1449.56 213.067 1449.25 211.582 1448.27 210.251C1446.66 208.176 1443.38 206.888 1439.48 206.888C1433.1 206.888 1427.6 209.552 1426.4 213.198ZM1425.4 225.753L1408.98 278.879H1426.46L1442.75 225.753H1425.4ZM1460.32 231.475C1450.76 236.278 1444.3 243.287 1441.72 251.65C1439.69 258.287 1440.52 264.248 1444.04 268.944C1449.38 275.996 1460.65 279.883 1475.82 279.883C1487.45 279.883 1498.74 277.394 1507.56 272.961C1517.16 268.07 1523.65 261.017 1526.2 252.61C1528.23 246.06 1527.44 240.186 1523.93 235.536C1518.62 228.569 1507.27 224.728 1492.02 224.728C1480.16 224.728 1469.18 227.042 1460.32 231.475ZM1490.03 234.75C1498.85 234.75 1505.33 236.824 1508.19 240.558C1510.22 243.243 1510.55 246.933 1509.13 251.497C1505.62 263.004 1493.94 269.86 1477.85 269.86C1469.14 269.86 1462.81 267.786 1459.95 264.053C1458.84 262.568 1458.2 260.82 1458.14 258.789C1458.01 256.999 1458.29 255.012 1458.95 252.828C1462.48 241.344 1473.79 234.75 1490.03 234.75ZM1556.82 229.662C1556.95 229.247 1558.03 225.753 1558.03 225.753H1540.54L1524.21 278.879H1541.61L1550.87 248.79C1554.79 236.125 1570.34 234.75 1576.84 234.75C1584.68 234.75 1589.63 236.125 1591.66 238.811C1593.08 240.711 1593.21 243.615 1591.99 247.435L1582.34 278.879H1599.83L1609.45 247.545C1611.22 241.758 1610.7 236.911 1607.81 233.091C1603.6 227.544 1594.65 224.728 1581.14 224.728C1572.15 224.728 1563.7 226.452 1556.82 229.662Z" fill="#8C8C8C"/>
</g>
<defs>
<clipPath id="clip0_250_70">
<rect width="1637" height="297" fill="white"/>
</clipPath>
</defs>
</svg>
