<svg width="1637" height="251" viewBox="0 0 1637 251" fill="none" xmlns="http://www.w3.org/2000/svg">
<g clip-path="url(#clip0_250_74)">
<path fill-rule="evenodd" clip-rule="evenodd" d="M0 250.744H1636.63L1636.69 0H0.0651887L0 250.744Z" fill="#2858A1"/>
<path fill-rule="evenodd" clip-rule="evenodd" d="M524.632 118.452L527.751 79.4382C528.225 73.6733 527.519 58.3621 513.549 58.3621H451.014L409.992 170.272H458.893L488.6 89.3291L482.342 170.272H525.804L579.111 90.7354L550.027 170.272H599.244L640.258 58.3621H564.052L524.632 118.452ZM800.399 59.3958C767.731 66.1108 723.429 90.2324 723.914 134.248C724.183 159.654 754.711 173.718 789.727 172.758C809.349 172.218 828.039 168.605 830.432 168.204L843.415 134.284C826.204 137.023 809.712 141.176 796.748 135.97C773.392 126.582 787.77 102.21 804.283 94.6191C813.369 90.3432 823.315 88.2025 833.357 88.3604C838.293 88.4629 850.343 88.6677 855.027 99.3688L871.344 60.0477C843.246 53.0721 815.039 56.3876 800.399 59.3958ZM1278.28 170.272H1332.28L1373.26 58.3621H1319.26L1278.28 170.272ZM630.321 170.272H684.307L725.292 58.3621H671.362L630.321 170.272ZM960.568 98.6704H933.431L948.191 58.3621H896.73L855.838 170.281H907.113L921.11 132.357H948.294L934.316 170.281H985.703L1026.78 58.3621H975.441L960.568 98.6704ZM1249.96 58.3621H1197.51L1156.47 170.281H1261.88L1275.5 133.102H1222.63L1249.96 58.3621ZM1478.16 135.16C1478.54 127.421 1480.08 96.8822 1481.02 79.28C1481.42 72.0434 1479.86 66.5113 1476.38 62.8325C1473.8 60.1583 1470.32 58.5607 1466.61 58.3621H1403.91L1362.92 170.281H1408.46L1437.51 91.0241L1434.08 170.281H1510.44L1551.43 58.3621H1506.3L1478.16 135.16ZM1016.21 170.281H1129.99L1141.03 140.069H1078.21L1082.82 127.645H1141.43L1151.5 100.095H1092.89L1097.38 87.6712H1158.9L1169.73 58.3713H1057.21L1016.21 170.281Z" fill="white"/>
<path fill-rule="evenodd" clip-rule="evenodd" d="M384.335 250.929C389.205 233.913 379.614 219.683 366.371 213.927C366.948 204.576 363.27 195.253 355.55 188.315C359.089 180.79 362.972 158.587 346.739 144.682C353.175 117.179 325.553 101.719 310.607 100.322C303.379 95.1905 292.941 91.7817 280.265 90.4313C289.486 76.5171 287.129 57.5551 275.889 47.3662C276.522 32.1853 266.24 17.9265 250.791 12.5528C245.687 -0.132079 217.545 1.90752 214.276 13.6424C198.043 19.5005 188.275 37.8292 189.961 53.96C179.986 64.6239 180.433 83.111 189.635 94.8924C181.011 94.6875 168.942 97.0159 160.365 100.48H160.355L159.964 100.369C153.009 96.9456 145.201 95.6405 137.512 96.6154C134.266 94.7504 130.808 93.2837 127.211 92.2474C124.261 87.8335 120.327 84.1641 115.72 81.5277C113.885 73.8813 107.32 67.6972 101.406 64.7357C101.993 59.0079 99.7576 51.8645 97.8671 48.5583C94.44 42.5511 95.2781 33.601 96.2932 32.3251C100.195 27.417 96.8147 22.9186 95.0546 21.1955C86.1144 12.3851 77.2766 17.0324 74.6878 21.1117C66.1666 5.88436 56.4162 1.82376 50.6051 3.82614C43.0339 -2.14374 30.9181 1.5443 31.1136 8.84599C26.1407 12.3385 22.7322 13.9963 30.5082 28.2365C28.9624 57.9554 32.2312 66.8032 51.704 82.7849C45.6507 88.6059 42.4099 101.831 48.2769 111.377C46.731 125.636 54.2836 139.308 63.7733 146.563C66.4647 167.061 86.2355 179.178 99.2174 181.889C107.925 194.62 120.702 200.971 132.994 202.201C133.712 207.911 135.881 213.443 139.448 218.705C136.263 230.328 136.552 241.14 140.286 250.91H384.335V250.929Z" fill="black"/>
<path fill-rule="evenodd" clip-rule="evenodd" d="M336.086 205.672C334.634 215.283 328.915 223.581 324.78 228.173C325.572 231.591 326.196 240.569 326.196 241.156C348.64 239.218 369.044 214.259 349.217 195.176C346.413 199.152 340.063 204.136 336.086 205.672Z" fill="white"/>
<path fill-rule="evenodd" clip-rule="evenodd" d="M362.609 222.532C357.142 237.042 342.475 245.014 325.86 247.091C325.609 248.355 325.541 249.646 325.656 250.929H375.228C378.664 240.619 375.796 228.446 362.609 222.532ZM171.288 188.054C163.038 196.585 152.924 199.585 143.649 200.665C146.555 226.016 191.172 250.528 242.401 250.026C326.531 249.188 336.422 198.885 325.591 179.523C299.805 206.542 213.727 221.638 171.288 188.054Z" fill="white"/>
<path fill-rule="evenodd" clip-rule="evenodd" d="M185.509 144.599C187.026 160.748 179.996 176.441 176.662 181.965C184.242 187.981 200.493 199.483 236.999 200.06C291.767 200.954 350.018 174.095 317.331 129.363C302.681 147.357 233.469 163.478 185.509 144.599ZM114.993 92.4258C111.687 116.045 79.2323 133.815 58.3159 118.457C65.5799 151.221 98.9472 151.873 112.888 138.405C125.722 125.992 126.821 110.177 120.516 99.1873C119.106 96.6131 117.234 94.321 114.993 92.4258Z" fill="white"/>
<path fill-rule="evenodd" clip-rule="evenodd" d="M130.192 103.441C136.869 136.457 103.865 162.312 74.7998 149.617C81.7843 169.651 116.232 186.898 139.58 160.653C158.8 139.046 139.346 105.258 130.192 103.441Z" fill="white"/>
<path fill-rule="evenodd" clip-rule="evenodd" d="M146.889 106.926C170.571 150.746 143.062 180.902 112.6 181.33C129.791 199.399 174.688 198.141 177.546 156.23C179.466 128.123 167.116 112.281 146.889 106.926ZM317.647 235.962C309.424 242.38 299.32 247.381 288.079 250.92H316.324C318.066 245.574 318.355 240.395 317.647 235.962ZM195.436 250.93C177.342 245.668 160.887 237.248 148.529 225.69C146.935 235.377 148.249 243.748 151.667 250.93H195.436ZM97.3831 73.3325C94.2725 76.294 94.6637 84.2943 94.8221 86.008C95.2039 90.0313 89.1413 92.2013 88.2472 91.0744C86.1426 88.4201 91.1994 85.7193 89.0855 79.6935C87.0645 73.9285 93.2669 71.0134 93.2669 62.4265C93.2669 57.4438 89.0389 49.0338 88.4521 47.4599C86.5244 42.3003 86.6548 32.2698 89.43 27.3616C87.3346 25.4151 83.9914 22.5652 80.8344 27.4454C76.5971 33.9927 78.1151 42.1513 81.1231 48.4844C80.7133 48.6799 76.8578 48.5495 74.6786 55.4972C74.1125 56.2802 73.5287 57.0503 72.9279 57.8071L71.503 57.8535C70.488 52.8616 72.1921 49.751 73.4866 46.7987C73.1048 45.653 71.6055 40.6796 71.2981 32.8938C67.2844 22.7141 59.7039 12.6092 54.4795 12.0224C58.9402 18.5046 67.0423 33.9648 67.899 36.0602C69.6685 40.4003 65.8409 41.164 65.8409 41.164C59.8808 28.3954 53.129 17.2472 48.0257 12.1063C44.5707 8.63238 40.7431 7.51472 39.4766 9.74063C41.0226 10.2529 42.9223 12.1063 44.3845 13.913C49.8417 20.6653 60.9984 43.6786 60.9984 43.6786C60.9984 43.6786 60.1229 44.8241 59.0613 44.6472C57.2639 44.3678 54.9637 41.0243 52.2537 34.775C49.3295 29.0566 43.8629 20.9167 40.8922 17.508C38.4336 14.686 36.3104 15.6359 34.7644 16.8653C36.3476 19.7059 38.0611 23.0029 38.8341 25.62C42.9037 24.521 48.1001 28.9728 48.6963 32.9682C49.2922 36.9543 50.6798 47.851 53.185 51.595C52.2537 52.0979 49.8882 53.8488 49.8882 53.8488C47.1503 50.4494 45.1946 38.0906 44.7662 33.6481C44.6638 32.5491 43.3228 30.2767 40.678 29.5688C39.3556 29.2149 39.1135 30.0625 39.0669 31.0031C37.9308 55.8419 39.43 62.119 61.3894 79.3489C62.8235 80.4757 65.2914 83.633 66.9119 86.9299C68.5323 90.2269 71.3075 94.1945 76.5785 93.5239L78.6645 95.6846C73.9151 99.5216 66.8932 97.156 65.2262 94.9953C63.9039 93.263 60.2905 87.8986 60.2905 87.8986C44.9805 104.169 65.4405 126.223 89.6535 115.224C113.28 104.486 111.622 79.1627 97.3831 73.3325ZM319.854 113.212C321.391 116.174 321.26 120.607 320.525 121.371C331.979 129.129 334.057 144.868 334.41 151.398C345.65 129.204 328.785 115.969 319.854 113.212ZM341.897 152.756C341.032 155.505 338.266 162.47 330.424 171.756C335.072 177.372 337.698 185.326 337.93 194.322C359.368 181.452 345.362 154.964 341.897 152.756ZM271.698 99.2143C268.402 102.828 263.857 104.011 262.758 104.095C261.091 104.225 260.029 102.949 261.855 101.999C265.281 100.211 268.644 97.2493 264.965 90.8789C267.387 90.4878 275.711 87.4515 276.401 73.0344C276.95 61.5883 270.86 54.5101 265.776 51.2225C265.776 51.2225 263.792 49.071 266.288 48.7359C267.554 34.8868 258.223 23.1426 240.855 19.5663L240.976 18.1041C241.647 18.0389 242.027 17.3218 241.906 16.6326C241.302 13.2052 228.739 11.7896 223.757 16.4277C222.694 17.4149 226.224 18.4486 227.193 18.486C228.468 18.5324 229.354 20.2369 227.565 20.2089C217.62 20.0319 199.125 28.8424 199.851 52.9548C200.456 52.936 205.634 51.3995 207.702 51.9861C209.098 52.3866 208.623 54.1003 207.459 54.1842C191.051 55.4508 184.243 84.3501 206.937 94.6042C206.937 94.6042 208.101 95.2561 206.64 96.1875C203.929 97.9105 201.88 101.384 205.96 103.722C207.422 104.56 208.567 105.641 207.888 107C207.207 108.351 204.907 108.276 202.672 107.159C191.404 101.505 178.179 104.504 167.945 107.82C175.526 114.358 181.085 124.975 183.796 135.947C199.348 143.006 216.576 145.697 233.581 145.745C279.195 145.856 310.83 132.621 313.289 118.931C315.309 107.503 294.43 100.5 271.698 99.2143Z" fill="white"/>
<path fill-rule="evenodd" clip-rule="evenodd" d="M61.4639 54.9582C58.7538 54.9582 55.839 55.7311 55.9135 56.3459C56.0439 57.361 59.4616 56.7836 62.6839 58.2831C64.6861 59.7081 68.0852 61.9804 68.5509 61.4868C69.2306 60.7884 67.8152 57.7149 67.1912 56.3738C65.2541 56.5415 63.373 55.0699 61.4639 54.9582ZM255.783 73.4918C255.027 73.7091 254.339 74.1127 253.781 74.6653C237.939 71.7968 232.986 76.1088 224.492 75.8947C224.604 74.8143 224.24 73.3335 222.844 73.4825C222.341 73.5384 221.679 74.6933 221.437 75.0658C219.221 78.372 218.355 80.2068 219.212 80.9797C220.133 81.7993 221.261 80.4861 222.433 79.1357C223.831 78.9681 227.053 79.0705 230.126 81.1473C232.771 82.9262 238.2 89.8088 243.882 87.3874C247.83 85.5433 251.611 78.726 254.507 78.7166C255.913 78.7073 257.646 78.9402 257.943 78.7724C258.595 78.3999 257.282 73.1379 255.783 73.4918ZM243.527 84.2208C238.712 86.7074 235.788 80.3931 231.085 78.3255C235.426 77.1985 244.141 76.3417 250.828 77.5618C249.255 78.8004 244.887 83.5223 243.527 84.2208ZM256.025 35.307C255.262 34.6208 254.364 34.1002 253.39 33.778C252.415 33.4558 251.385 33.3389 250.362 33.4348C244.766 34.0682 240.891 41.3792 241.534 50.0779C241.925 55.4332 243.993 60.2109 247.057 62.8373C248.798 64.3275 250.754 65.0259 252.71 64.8583C258.325 64.3647 262.218 57.0351 261.584 48.1407C261.193 42.6831 259.117 37.8868 256.025 35.307Z" fill="black"/>
<path fill-rule="evenodd" clip-rule="evenodd" d="M254.227 37.8224C253.756 37.3834 253.199 37.0473 252.592 36.8357C251.984 36.624 251.339 36.5413 250.698 36.5931C246.824 37.0308 243.974 43.1032 244.467 49.8461C244.514 50.4607 244.589 51.0661 244.682 51.6621C244.71 51.7553 244.756 51.8112 244.793 51.8112C244.85 51.8112 244.906 51.7181 244.924 51.5783C245.334 46.9775 247.726 43.3919 250.753 43.2149C254.208 43.01 257.16 47.3687 257.366 52.9567C257.431 54.8194 257.179 56.5702 256.696 58.0884C256.686 58.1629 256.696 58.2187 256.732 58.2281C256.751 58.2373 256.779 58.2281 256.807 58.1909C258.175 55.7041 258.912 52.1558 258.641 48.3559C258.325 43.8669 256.629 39.8248 254.227 37.8224Z" fill="white"/>
<path fill-rule="evenodd" clip-rule="evenodd" d="M231.449 36.1793C230.641 35.4158 229.683 34.8297 228.636 34.4592C227.588 34.0887 226.474 33.9418 225.366 34.0278C219.444 34.568 215.039 41.9349 215.356 50.792C215.552 56.1471 217.479 60.9901 220.515 63.7468C221.315 64.5284 222.266 65.1376 223.31 65.5364C224.355 65.9354 225.47 66.1156 226.586 66.0659C232.529 65.6746 236.943 58.2705 236.644 49.2273C236.467 43.779 234.522 38.8987 231.449 36.1793Z" fill="black"/>
<path fill-rule="evenodd" clip-rule="evenodd" d="M225.628 37.1853C221.428 37.5765 218.076 43.7419 218.327 50.6524C218.439 53.791 219.323 56.3709 220.347 58.2894C220.432 58.4012 220.516 58.457 220.562 58.4292C220.599 58.4198 220.608 58.364 220.608 58.2802C220.247 57.0622 220.035 55.805 219.975 54.5362C219.733 49.0505 222.312 44.5057 225.759 44.3752C229.195 44.2448 232.184 48.6314 232.435 54.1823C232.473 55.1322 232.435 56.0542 232.314 56.9203C232.314 56.9763 232.333 57.0135 232.352 57.0228C232.389 57.0321 232.427 56.9949 232.454 56.9297C233.302 54.7317 233.758 52.0774 233.665 49.3113C233.515 44.8408 231.932 40.743 229.54 38.6289C229.023 38.1303 228.408 37.7445 227.735 37.496C227.062 37.2475 226.344 37.1418 225.628 37.1853Z" fill="white"/>
<path fill-rule="evenodd" clip-rule="evenodd" d="M187.521 250.999L187.475 250.934H140.296C136.562 241.165 136.263 230.352 139.457 218.728C135.891 213.466 133.721 207.934 133.004 202.225C120.702 200.996 107.925 194.654 99.2269 181.913C86.2449 179.203 66.4648 167.086 63.7827 146.587C54.2931 139.331 46.7404 125.66 48.2864 111.401C42.4286 101.855 45.6602 88.6297 51.7135 82.8089C32.2313 66.8271 28.9718 57.9793 30.5177 28.2603C22.7417 14.0202 26.1594 12.3718 31.1231 8.87927C31.0206 4.93039 34.5129 2.04322 38.9364 1.15845L38.2938 0.078125H0.0651887L0 250.999H187.521ZM372.276 217.239H1315.07L1320.9 201.285H364.48C365.999 205.346 366.632 209.629 366.371 213.932C368.439 214.835 370.422 215.944 372.276 217.239Z" fill="#FFF22D"/>
</g>
<defs>
<clipPath id="clip0_250_74">
<rect width="1637" height="251" fill="white"/>
</clipPath>
</defs>
</svg>
