<svg width="1637" height="466" viewBox="0 0 1637 466" fill="none" xmlns="http://www.w3.org/2000/svg">
<path fill-rule="evenodd" clip-rule="evenodd" d="M0 0H1635.68V464.042H0V0Z" fill="#FFF22D"/>
<path fill-rule="evenodd" clip-rule="evenodd" d="M1441.4 91.5326C1477.86 91.5326 1494.02 125.472 1493.88 143.241C1493.88 159.541 1482.28 196.418 1441.11 196.269L299.47 195.962L299.907 372.518H161.559V91.5234L1441.4 91.5326ZM1280.27 125.611C1289.38 125.611 1298.48 133.254 1298.48 141.623C1298.48 150.149 1289.23 159.541 1280.1 159.541H299.907L300.055 125.472L1280.27 125.611ZM667.616 224.312C696.44 224.312 716.571 244.007 716.571 277.779C716.571 296.58 698.645 315.818 685.551 320.086L722.601 372.518H624.533L600.131 327.43H577.339L577.19 372.518H493.827L493.538 224.312H667.616ZM618.503 258.243C627.325 258.243 634.977 266.182 634.977 274.541C634.977 284.827 627.325 291.01 618.503 291.01H577.19V258.252L618.503 258.243ZM946.22 224.312L945.93 258.399L850.078 258.243V281.601L942.843 281.749V315.827H850.078V339.026H952.111L951.963 372.529H763.181V224.312H946.22ZM1083.99 224.312V339.017H1166.76L1166.61 372.518H999.01V224.312H1083.99ZM1276.29 224.312V339.017H1358.78V372.518H1191.31V224.312H1276.29ZM438.256 224.312V372.518H355.48V224.312H438.256ZM1385.08 224.312H1467.87V372.518H1385.08V224.312Z" fill="#CC2229"/>
</svg>
